<svg xmlns="http://www.w3.org/2000/svg" viewBox="0 0 64 64" width="64" height="64">
  <!-- Cubo di Rubik 3D - Icona Favicon -->
  <defs>
    <style>
      .face-red { fill: #ff0000; }
      .face-blue { fill: #0000ff; }
      .face-green { fill: #00ff00; }
      .face-orange { fill: #ff8000; }
      .face-yellow { fill: #ffff00; }
      .face-white { fill: #ffffff; }
      .border { stroke: #333; stroke-width: 0.5; }
    </style>
  </defs>
  
  <!-- Faccia superiore (gialla) -->
  <g transform="translate(16, 8)">
    <!-- Griglia 3x3 faccia superiore -->
    <polygon points="0,0 32,0 40,8 8,8" class="face-yellow border"/>
    <!-- Linee di divisione -->
    <line x1="10.67" y1="0" x2="13.33" y2="8" class="border"/>
    <line x1="21.33" y1="0" x2="24" y2="8" class="border"/>
    <line x1="0" y1="2.67" x2="40" y2="10.67" class="border"/>
    <line x1="0" y1="5.33" x2="40" y2="13.33" class="border"/>
  </g>
  
  <!-- Faccia sinistra (rossa) -->
  <g transform="translate(8, 16)">
    <polygon points="0,0 8,8 8,40 0,32" class="face-red border"/>
    <!-- Linee di divisione -->
    <line x1="0" y1="10.67" x2="8" y2="18.67" class="border"/>
    <line x1="0" y1="21.33" x2="8" y2="29.33" class="border"/>
    <line x1="2.67" y1="0" x2="10.67" y2="40" class="border"/>
    <line x1="5.33" y1="0" x2="13.33" y2="40" class="border"/>
  </g>
  
  <!-- Faccia frontale (blu) -->
  <g transform="translate(16, 16)">
    <polygon points="0,0 32,0 32,32 0,32" class="face-blue border"/>
    <!-- Griglia 3x3 -->
    <line x1="10.67" y1="0" x2="10.67" y2="32" class="border"/>
    <line x1="21.33" y1="0" x2="21.33" y2="32" class="border"/>
    <line x1="0" y1="10.67" x2="32" y2="10.67" class="border"/>
    <line x1="0" y1="21.33" x2="32" y2="21.33" class="border"/>
  </g>
  
  <!-- Faccia destra (arancione) -->
  <g transform="translate(48, 16)">
    <polygon points="0,0 8,8 8,40 0,32" class="face-orange border"/>
    <!-- Linee di divisione -->
    <line x1="0" y1="10.67" x2="8" y2="18.67" class="border"/>
    <line x1="0" y1="21.33" x2="8" y2="29.33" class="border"/>
    <line x1="2.67" y1="0" x2="10.67" y2="40" class="border"/>
    <line x1="5.33" y1="0" x2="13.33" y2="40" class="border"/>
  </g>
</svg>