<svg xmlns="http://www.w3.org/2000/svg" viewBox="0 0 64 64" width="64" height="64">
  <!-- Cubo di Rubik 3D Realistico - Icona Favicon -->
  <defs>
    <style>
      /* Colori autentici del Cubo di Rubik */
      .face-white { fill: #ffffff; stroke: #000; stroke-width: 0.3; }
      .face-red { fill: #c41e3a; stroke: #000; stroke-width: 0.3; }
      .face-orange { fill: #ff5800; stroke: #000; stroke-width: 0.3; }
      .face-yellow { fill: #ffd500; stroke: #000; stroke-width: 0.3; }
      .face-green { fill: #009e60; stroke: #000; stroke-width: 0.3; }
      .face-blue { fill: #0051ba; stroke: #000; stroke-width: 0.3; }
      
      /* Ombre per effetto 3D */
      .shadow-light { fill: rgba(0,0,0,0.1); }
      .shadow-dark { fill: rgba(0,0,0,0.2); }
      
      /* Bordi del cubo */
      .cube-edge { stroke: #000; stroke-width: 0.8; fill: none; }
      .grid-line { stroke: #000; stroke-width: 0.4; }
    </style>
  </defs>
  
  <!-- Ombra del cubo -->
  <ellipse cx="32" cy="58" rx="20" ry="4" class="shadow-light"/>
  
  <!-- Faccia superiore (bianca) con prospettiva isometrica -->
  <g>
    <polygon points="12,20 32,10 52,20 32,30" class="face-white"/>
    <!-- Griglia 3x3 faccia superiore -->
    <line x1="18.67,16.67" x2="25.33,23.33" class="grid-line"/>
    <line x1="25.33,13.33" x2="32,20" class="grid-line"/>
    <line x1="32,20" x2="38.67,26.67" class="grid-line"/>
    <line x1="38.67,13.33" x2="45.33,20" class="grid-line"/>
    <line x1="18.67,23.33" x2="45.33,23.33" class="grid-line"/>
    <line x1="15.33,20" x2="48.67,20" class="grid-line"/>
    
    <!-- Quadratini colorati sulla faccia superiore -->
    <polygon points="12,20 18.67,16.67 25.33,23.33 18.67,26.67" class="face-white"/>
    <polygon points="18.67,16.67 25.33,13.33 32,20 25.33,23.33" class="face-red"/>
    <polygon points="25.33,13.33 32,10 38.67,16.67 32,20" class="face-white"/>
    <polygon points="32,10 38.67,13.33 45.33,20 38.67,16.67" class="face-yellow"/>
    <polygon points="38.67,13.33 45.33,16.67 52,20 45.33,20" class="face-white"/>
  </g>
  
  <!-- Faccia sinistra (verde) -->
  <g>
    <polygon points="12,20 32,30 32,54 12,44" class="face-green"/>
    <!-- Griglia 3x3 faccia sinistra -->
    <line x1="18.67,26.67" x2="18.67,41.33" class="grid-line"/>
    <line x1="25.33,30" x2="25.33,46" class="grid-line"/>
    <line x1="12,28" x2="32,38" class="grid-line"/>
    <line x1="12,36" x2="32,46" class="grid-line"/>
    
    <!-- Quadratini colorati sulla faccia sinistra -->
    <polygon points="12,20 18.67,26.67 18.67,33.33 12,28" class="face-green"/>
    <polygon points="18.67,26.67 25.33,30 25.33,38 18.67,33.33" class="face-orange"/>
    <polygon points="25.33,30 32,30 32,38 25.33,38" class="face-green"/>
    <polygon points="12,28 18.67,33.33 18.67,41.33 12,36" class="face-white"/>
    <polygon points="18.67,33.33 25.33,38 25.33,46 18.67,41.33" class="face-green"/>
  </g>
  
  <!-- Faccia frontale (rossa) -->
  <g>
    <polygon points="32,30 52,20 52,44 32,54" class="face-red"/>
    <!-- Griglia 3x3 faccia frontale -->
    <line x1="38.67,26.67" x2="38.67,50.67" class="grid-line"/>
    <line x1="45.33,23.33" x2="45.33,47.33" class="grid-line"/>
    <line x1="32,38" x2="52,28" class="grid-line"/>
    <line x1="32,46" x2="52,36" class="grid-line"/>
    
    <!-- Quadratini colorati sulla faccia frontale -->
    <polygon points="32,30 38.67,26.67 38.67,34.67 32,38" class="face-red"/>
    <polygon points="38.67,26.67 45.33,23.33 45.33,31.33 38.67,34.67" class="face-blue"/>
    <polygon points="45.33,23.33 52,20 52,28 45.33,31.33" class="face-red"/>
    <polygon points="32,38 38.67,34.67 38.67,42.67 32,46" class="face-yellow"/>
    <polygon points="38.67,34.67 45.33,31.33 45.33,39.33 38.67,42.67" class="face-red"/>
  </g>
  
  <!-- Bordi principali del cubo per definizione -->
  <polygon points="12,20 32,10 52,20 32,30" class="cube-edge"/>
  <polygon points="12,20 32,30 32,54 12,44" class="cube-edge"/>
  <polygon points="32,30 52,20 52,44 32,54" class="cube-edge"/>
</svg>